<?xml version="1.0" encoding="utf-8"?>
<!-- Generator: Adobe Illustrator 21.0.0, SVG Export Plug-In . SVG Version: 6.00 Build 0)  -->
<svg version="1.1" id="Capa_1" xmlns="http://www.w3.org/2000/svg" xmlns:xlink="http://www.w3.org/1999/xlink" x="0px" y="0px"
	 viewBox="0 0 100 100" style="enable-background:new 0 0 100 100;" xml:space="preserve">
<style type="text/css">
	.st0{fill:#828282;}
</style>
<path class="st0" d="M71.5,68.8c-0.9,0-1.5-0.6-1.5-1.5c0-8.4-5.2-16-13-18.9l-0.7-0.3l-0.6,0.4c-1.8,1-3.8,1.4-5.8,1.4
	c-1.9,0-3.9-0.5-5.7-1.5L43.5,48l-0.6,0.2c-7.8,2.9-13,10.5-13,18.9c0,0.9-0.6,1.5-1.5,1.5s-1.5-0.6-1.5-1.5
	c0-8.6,4.7-16.4,12.4-20.4l1.6-0.9l-1.1-1.4c-1.4-1.9-2.1-4.4-2.1-6.9c0-6.9,5.5-12.4,12.4-12.4s12.4,5.5,12.4,12.4
	c0,2.5-0.7,4.8-2.1,6.9l-1,1.5l1.6,0.9c7.6,4,12.2,11.9,12.1,20.4C73,68.1,72.4,68.8,71.5,68.8z M50,28.2c-5.1,0-9.4,4.2-9.4,9.4
	S44.9,47,50,47s9.4-4.3,9.4-9.4S55.1,28.2,50,28.2z"/>
</svg>
